<?xml version="1.0" encoding="UTF-8"?>
<!DOCTYPE svg PUBLIC "-//W3C//DTD SVG 1.1//EN" "http://www.w3.org/Graphics/SVG/1.1/DTD/svg11.dtd">
<!-- Creator: CorelDRAW 2019 (64-Bit Evaluation Version) -->
<svg xmlns="http://www.w3.org/2000/svg" xml:space="preserve" width="179.5mm" height="174.5mm" version="1.1" fill="#8E8E8E" style="shape-rendering:geometricPrecision; text-rendering:geometricPrecision; image-rendering:optimizeQuality; fill-rule:evenodd; clip-rule:evenodd"
viewBox="0 0 17950 17450"
 xmlns:xlink="http://www.w3.org/1999/xlink">
 <g id="Layer_x0020_1">
  <metadata id="CorelCorpID_0Corel-Layer"/>
  <path class="fil0" d="M8753.43 186.51c4700.41,0 8510.85,3790.02 8510.85,8465.22 0,1515.02 -400.54,2936.83 -1101.44,4167.1l596.51 1844.88 501.37 1862.27c93.22,283.97 -366.87,776.69 -720.54,648.88l-2012.93 -617.9 -1553.81 -552.48c-1243.72,707.83 -2684.36,1112.48 -4220.01,1112.48 -4700.4,0 -8510.84,-3790.02 -8510.84,-8465.23 0,-4675.2 3810.44,-8465.22 8510.84,-8465.22zm6928.86 13381.69l-13.91 19.25 -48.51 -147.33 -216.54 -657.59c751.33,-1205.82 1185.77,-2630.89 1185.77,-4157.96 0,-4337.81 -3503.86,-7854.32 -7826.08,-7854.32 -8.77,0 -17.46,0.3 -26.22,0.33 -8.71,-0.03 -17.34,-0.33 -26.05,-0.33 -4201.3,0 -7623.61,3367.89 -7768.47,7577.52 -0.86,24.92 -2.18,49.71 -2.81,74.69 -0.69,27.41 -0.63,55 -1.04,82.47 -0.6,39.86 -1.51,79.63 -1.51,119.64l0.01 0.48 -0.01 0.48c0,4338.35 3480.47,7855.3 7773.83,7855.3 127.92,0 255.1,-3.18 381.5,-9.36 1387.26,-57.64 2681.1,-478 3790.33,-1168.59l411.81 127.34 391.03 120.91c-9.46,6.7 -18.93,13.41 -28.43,20.08l1252 376.12 1713.28 514.68 -485.21 -1493.79 -454.77 -1400.02z"/>
 </g>
</svg>
